<svg version="1.0" xmlns="http://www.w3.org/2000/svg" preserveAspectRatio="xMidYMid meet" viewBox="33.07 -0.02 473.5 428.87">  <g transform="translate(0.000000,471.000000) scale(0.100000,-0.100000)" fill="#000000" stroke="none"> <path d="M738 4503 c5 -230 -1 -282 -53 -451 -18 -59 -47 -170 -64 -247 -18 -77 -47 -201 -66 -275 -54 -219 -61 -275 -46 -382 16 -115 45 -196 128 -362 71 -142 88 -205 98 -360 8 -109 5 -132 -50 -391 -18 -88 -36 -182 -40 -209 -7 -48 -49 -183 -119 -381 -19 -55 -51 -181 -71 -280 -19 -99 -48 -220 -65 -270 -66 -202 -73 -270 -40 -357 23 -61 57 -94 113 -109 69 -18 123 -4 179 49 71 66 107 146 194 437 10 32 55 132 100 221 59 116 96 205 129 311 78 251 96 306 117 356 19 45 38 62 38 35 0 -28 60 -135 91 -165 73 -69 239 -93 358 -53 134 45 171 87 171 195 l0 68 53 -50 c29 -28 69 -55 89 -62 32 -11 43 -10 84 8 58 26 174 128 199 175 22 41 26 43 42 17 7 -10 46 -63 88 -116 52 -67 74 -103 70 -115 -3 -10 -28 -56 -55 -101 -94 -158 -112 -263 -62 -353 40 -72 70 -91 147 -91 61 0 66 2 105 40 23 22 55 62 72 88 17 26 32 46 33 45 2 -2 24 -31 49 -66 57 -78 95 -102 160 -102 101 0 166 76 166 196 0 76 -23 136 -111 285 l-41 70 28 42 c15 23 54 77 87 120 l60 79 26 -34 c71 -92 199 -178 265 -178 32 0 46 8 95 55 l58 55 5 -68 c3 -37 11 -77 18 -88 20 -32 68 -60 152 -88 208 -71 394 9 449 192 7 23 16 42 20 42 10 0 53 -114 114 -300 69 -210 95 -272 179 -426 54 -99 90 -182 127 -293 60 -179 117 -299 159 -335 33 -27 102 -42 152 -32 60 12 93 48 116 128 38 134 38 158 -8 298 -23 69 -48 161 -56 205 -34 181 -112 440 -149 500 -22 34 -63 167 -75 238 -6 37 -24 126 -40 196 -49 210 -60 281 -60 377 0 155 17 223 102 404 138 294 147 413 53 740 -15 52 -44 165 -66 252 -21 86 -57 211 -79 279 -36 110 -42 139 -50 271 -5 81 -7 188 -3 238 l6 90 -51 0 c-40 0 -52 -4 -56 -17 -3 -10 -17 -63 -31 -118 -35 -131 -53 -160 -136 -225 l-70 -55 58 -5 c71 -6 150 -47 210 -108 69 -70 116 -218 143 -447 6 -49 20 -133 31 -185 11 -52 28 -137 36 -189 29 -167 9 -229 -243 -741 -50 -102 -108 -205 -129 -230 -47 -56 -113 -107 -217 -165 -66 -37 -232 -115 -245 -115 -2 0 15 19 37 41 35 36 40 47 40 88 0 57 -27 116 -76 170 -72 81 -151 92 -260 37 -38 -19 -70 -33 -72 -31 -9 8 41 95 78 138 41 47 195 154 290 203 30 15 106 46 168 69 62 23 109 44 105 48 -4 4 -33 5 -65 1 l-59 -7 11 27 c22 59 45 93 94 140 l51 48 -32 -6 c-18 -3 -35 -1 -38 3 -8 15 77 122 141 177 32 28 85 68 117 89 31 21 55 40 53 43 -10 9 -111 -30 -155 -61 -25 -17 -75 -61 -111 -98 l-66 -67 -96 61 c-98 64 -140 103 -158 152 -18 48 -23 168 -11 261 13 96 55 275 73 308 11 20 10 20 -9 4 -23 -21 -33 -23 -33 -5 0 6 -11 26 -25 42 l-25 30 20 -46 c23 -54 19 -88 -37 -330 -10 -44 -14 -102 -11 -180 2 -95 7 -122 27 -162 13 -26 22 -49 20 -51 -2 -1 -26 -15 -53 -30 -62 -36 -86 -57 -138 -123 -49 -61 -77 -67 -143 -32 -86 44 -90 39 -20 -24 l69 -64 -42 -66 -43 -65 -64 29 c-72 33 -209 73 -228 66 -7 -2 15 -12 48 -21 69 -21 137 -55 180 -91 l30 -25 -29 -52 c-110 -199 -221 -348 -297 -400 -57 -38 -86 -90 -119 -214 -23 -85 -49 -135 -82 -158 -11 -8 -30 -43 -42 -77 -11 -33 -25 -62 -29 -63 -5 0 -21 28 -36 64 -16 36 -52 107 -81 159 l-53 94 18 51 c24 67 85 187 130 256 34 52 44 81 95 265 12 44 27 83 33 87 9 5 14 96 18 300 10 430 37 525 212 751 110 141 120 156 165 238 25 45 64 97 97 128 31 29 54 55 53 57 -8 7 -77 -17 -101 -36 -14 -11 -29 -20 -35 -20 -21 0 -37 128 -37 303 0 159 -2 177 -17 177 -18 0 -22 -23 -38 -220 -7 -89 -5 -141 7 -234 19 -142 20 -140 -93 -267 -105 -118 -147 -192 -198 -349 -54 -164 -67 -264 -65 -500 2 -157 -1 -186 -24 -280 -37 -153 -89 -294 -175 -479 l-76 -163 -88 176 c-100 200 -168 387 -191 526 -9 52 -18 179 -21 281 -6 212 -30 344 -89 491 -43 107 -89 178 -192 297 -45 53 -87 106 -94 118 -9 18 -9 49 0 133 10 86 10 141 0 247 -19 212 -21 223 -44 223 -18 0 -19 -4 -13 -47 16 -117 17 -269 2 -352 -8 -45 -17 -85 -20 -88 -2 -3 -29 6 -58 20 -29 15 -66 29 -83 33 -27 7 -24 3 25 -37 38 -31 76 -78 125 -155 39 -61 105 -153 148 -205 115 -138 176 -255 219 -419 15 -60 21 -132 29 -359 7 -208 13 -287 23 -296 7 -7 30 -71 50 -142 40 -135 48 -153 97 -218 37 -50 113 -197 129 -251 11 -38 10 -45 -21 -105 -18 -35 -41 -76 -51 -91 -10 -15 -17 -30 -16 -35 4 -12 -52 -133 -61 -133 -5 0 -18 27 -31 59 -12 32 -35 72 -52 87 -39 37 -56 71 -80 158 -26 95 -64 161 -112 198 -85 65 -171 171 -270 330 -36 59 -66 114 -66 122 0 23 61 67 142 104 51 23 63 31 38 26 -56 -10 -143 -42 -172 -64 -15 -11 -33 -20 -40 -20 -16 0 -88 102 -88 123 0 9 30 43 67 76 75 68 75 76 -1 30 -27 -17 -66 -34 -86 -36 -33 -5 -38 -1 -89 58 -56 67 -99 101 -157 125 -40 17 -40 18 -14 75 35 78 25 265 -26 474 -28 117 -30 154 -9 198 16 31 16 31 -2 11 -10 -12 -23 -30 -28 -39 -9 -15 -15 -16 -32 -6 l-22 11 23 -52 c40 -91 67 -216 73 -344 9 -193 -17 -244 -178 -347 l-86 -55 -53 60 c-63 71 -134 120 -214 148 -103 35 -115 18 -21 -27 85 -40 225 -168 260 -237 8 -16 15 -30 15 -32 0 -1 -16 0 -35 3 -19 3 -35 3 -35 0 0 -3 20 -19 43 -36 32 -21 54 -50 82 -102 l37 -71 -60 7 c-73 8 -93 -9 -30 -25 75 -19 211 -71 268 -103 112 -63 246 -155 274 -188 33 -39 72 -116 64 -124 -3 -4 -33 7 -67 24 -125 64 -239 22 -307 -111 -39 -77 -32 -141 24 -201 14 -15 22 -27 16 -27 -24 0 -316 153 -371 195 -34 25 -83 74 -108 108 -43 57 -297 557 -346 679 -35 88 -37 211 -5 341 14 59 35 185 46 280 11 95 25 196 31 226 14 69 59 181 88 217 55 69 192 139 253 128 l33 -6 -40 36 c-22 19 -43 35 -47 36 -5 0 -25 16 -46 35 -52 47 -61 68 -115 298 l-11 47 -46 0 -46 0 4 -207z m3245 -1329 c25 -9 66 -33 89 -55 l43 -39 -65 30 c-125 58 -189 35 -268 -97 -68 -114 -92 -245 -53 -295 l20 -24 -92 -86 c-106 -97 -142 -158 -160 -264 -17 -104 -13 -142 22 -215 38 -80 39 -105 5 -155 -67 -100 -126 -138 -191 -123 -45 10 -119 66 -157 118 -30 42 -31 46 -31 150 0 98 2 110 28 153 15 26 35 49 45 53 9 3 34 27 54 53 20 26 73 92 118 147 45 55 113 154 152 220 172 290 273 419 339 435 49 12 51 11 102 -6z m-2468 -27 c70 -36 141 -128 316 -410 64 -105 114 -172 190 -258 31 -35 74 -85 95 -111 22 -26 44 -47 50 -47 18 -1 64 -75 80 -127 17 -59 18 -103 0 -177 -17 -71 -49 -108 -128 -148 -67 -34 -111 -37 -154 -10 -34 21 -93 90 -117 136 -15 29 -14 34 15 95 16 36 33 83 37 105 9 51 -13 170 -44 241 -27 60 -113 154 -183 197 l-42 27 20 40 c11 21 20 52 20 69 0 75 -78 247 -138 304 -56 54 -136 55 -220 5 -36 -22 -53 -18 -32 8 15 17 100 62 140 74 27 8 63 3 95 -13z m2542 -78 c35 -22 65 -44 68 -49 7 -11 -68 -151 -93 -172 -22 -20 -214 -118 -230 -118 -6 0 -18 13 -27 30 -39 76 9 259 85 324 25 21 42 26 83 26 44 0 62 -6 114 -41z m-2540 -11 c31 -29 87 -146 103 -214 10 -47 9 -56 -9 -93 -12 -23 -27 -41 -34 -41 -7 0 -64 26 -127 58 l-114 57 -44 74 c-39 66 -43 76 -31 97 13 25 81 70 128 85 42 13 101 3 128 -23z m3044 -635 c6 -16 15 -104 20 -198 15 -268 21 -307 58 -353 84 -107 142 -241 170 -399 12 -69 30 -128 48 -163 16 -30 39 -100 52 -155 12 -55 29 -120 38 -145 52 -153 65 -210 66 -285 3 -120 -39 -178 -136 -191 -39 -6 -47 -3 -80 25 -19 18 -47 51 -60 74 -30 51 -80 191 -96 267 -6 30 -33 98 -60 150 -26 52 -82 163 -124 245 -47 93 -96 210 -128 305 -28 85 -73 205 -100 265 -26 61 -51 130 -54 155 -3 25 -10 61 -15 80 -18 64 -16 67 83 116 142 72 202 116 257 190 19 24 37 44 42 44 5 0 13 -12 19 -27z m-702 -2 c59 -30 111 -117 111 -184 0 -56 -32 -90 -154 -165 -134 -83 -169 -89 -213 -38 -41 46 -96 181 -88 214 9 38 106 126 176 161 72 36 114 39 168 12z m-2966 -56 c58 -66 135 -120 253 -177 47 -23 88 -48 91 -55 11 -27 -30 -200 -64 -278 -20 -44 -64 -167 -99 -273 -68 -206 -93 -264 -221 -520 -46 -91 -83 -176 -83 -191 0 -37 -26 -133 -58 -216 -34 -88 -103 -165 -148 -165 -45 0 -116 42 -136 81 -35 67 -14 279 36 374 9 17 16 44 16 60 0 52 57 256 80 287 16 21 25 58 35 132 20 149 75 296 145 386 54 69 57 83 63 285 5 174 22 325 36 325 3 0 28 -25 54 -55z m810 25 c61 -29 150 -110 167 -151 16 -38 0 -88 -61 -191 -46 -78 -57 -82 -142 -44 -72 32 -191 110 -222 147 -58 69 -12 199 90 254 39 21 105 15 168 -15z m2407 -304 c0 -30 -4 -65 -9 -78 -4 -13 -11 -36 -15 -51 -6 -26 -5 -28 15 -22 21 7 22 5 16 -39 -9 -63 -49 -138 -93 -174 -79 -65 -205 -69 -335 -9 -94 43 -115 70 -112 148 4 91 13 105 75 113 30 4 134 41 243 86 105 43 196 79 203 79 8 1 12 -16 12 -53z m-2715 -7 c98 -40 247 -96 314 -118 19 -6 44 -11 57 -11 31 0 54 -45 54 -105 0 -84 -42 -128 -168 -174 -88 -33 -191 -27 -259 15 -61 38 -104 106 -111 176 -4 46 -3 51 13 44 13 -5 16 -2 12 11 -26 92 -29 113 -23 156 4 26 8 47 10 47 1 0 47 -18 101 -41z m1337 -26 c38 -64 58 -110 84 -193 9 -30 24 -65 32 -78 17 -26 11 -37 -50 -93 -23 -21 -48 -59 -63 -95 -13 -32 -30 -59 -37 -59 -7 0 -17 20 -23 47 -8 39 -21 58 -72 108 -65 62 -73 79 -49 99 7 6 21 41 31 78 24 90 93 243 109 243 2 0 19 -26 38 -57z m212 -416 c20 -29 47 -79 62 -111 53 -117 14 -236 -78 -236 -50 0 -79 20 -135 93 l-46 59 22 45 c12 25 42 76 67 114 24 38 47 76 50 84 8 21 18 12 58 -48z m-402 1 c84 -127 108 -169 108 -186 0 -25 -54 -104 -96 -142 -44 -39 -90 -40 -133 -4 -46 38 -57 92 -36 170 16 60 99 214 114 214 4 0 23 -24 43 -52z"/> <path d="M4080 4343 c-100 -25 -117 -26 -376 -7 -54 4 -98 3 -109 -3 -13 -7 2 -11 58 -16 42 -3 121 -16 177 -28 90 -20 109 -21 158 -11 54 11 202 75 202 87 0 7 0 7 -110 -22z"/> <path d="M1170 4325 c15 -18 157 -64 221 -72 33 -4 78 2 153 22 74 18 125 26 167 23 51 -3 57 -1 42 10 -20 15 -135 11 -252 -10 -81 -14 -180 -5 -256 21 -73 26 -93 27 -75 6z"/> </g> </svg>