<svg xmlns="http://www.w3.org/2000/svg" xmlns:xlink="http://www.w3.org/1999/xlink" width="946" zoomAndPan="magnify" viewBox="0 0 709.5 762.749972" height="1017" preserveAspectRatio="xMidYMid meet" version="1.0"><defs><g/><clipPath id="7258bdb886"><path d="M 110 75.144531 L 611 75.144531 L 611 528 L 110 528 Z M 110 75.144531 " clip-rule="nonzero"/></clipPath></defs><g clip-path="url(#7258bdb886)"><path fill="#000000" d="M 153.347656 97.136719 C 153.878906 121.402344 153.242188 126.890625 147.75 144.71875 C 145.851562 150.945312 142.785156 162.65625 140.992188 170.78125 C 139.089844 178.90625 136.027344 191.988281 134.019531 199.796875 C 128.316406 222.902344 127.578125 228.8125 129.160156 240.101562 C 130.851562 252.234375 133.914062 260.78125 142.679688 278.292969 C 150.179688 293.277344 151.976562 299.921875 153.03125 316.277344 C 153.878906 327.777344 153.5625 330.203125 147.75 357.53125 C 145.851562 366.816406 143.949219 376.734375 143.527344 379.582031 C 142.785156 384.648438 138.351562 398.890625 130.957031 419.78125 C 128.949219 425.585938 125.570312 438.878906 123.457031 449.324219 C 121.449219 459.769531 118.386719 472.535156 116.59375 477.8125 C 109.621094 499.125 108.882812 506.296875 112.367188 515.476562 C 114.796875 521.914062 118.386719 525.394531 124.304688 526.976562 C 131.589844 528.878906 137.292969 527.398438 143.210938 521.808594 C 150.707031 514.84375 154.511719 506.402344 163.699219 475.699219 C 164.757812 472.324219 169.511719 461.773438 174.261719 452.382812 C 180.496094 440.144531 184.402344 430.753906 187.886719 419.570312 C 196.128906 393.085938 198.027344 387.285156 200.246094 382.007812 C 202.253906 377.261719 204.261719 375.46875 204.261719 378.316406 C 204.261719 381.269531 210.597656 392.558594 213.871094 395.726562 C 221.582031 403.003906 239.117188 405.539062 251.683594 401.316406 C 265.839844 396.570312 269.746094 392.136719 269.746094 380.742188 L 269.746094 373.570312 L 275.34375 378.84375 C 278.40625 381.796875 282.632812 384.648438 284.746094 385.386719 C 288.125 386.546875 289.289062 386.441406 293.617188 384.542969 C 299.742188 381.796875 311.996094 371.035156 314.636719 366.078125 C 316.960938 361.75 317.382812 361.539062 319.074219 364.285156 C 319.8125 365.339844 323.933594 370.929688 328.367188 376.523438 C 333.859375 383.59375 336.183594 387.390625 335.761719 388.65625 C 335.445312 389.710938 332.804688 394.566406 329.953125 399.3125 C 320.023438 415.984375 318.121094 427.0625 323.402344 436.558594 C 327.628906 444.152344 330.796875 446.160156 338.929688 446.160156 C 345.375 446.160156 345.902344 445.949219 350.019531 441.9375 C 352.449219 439.617188 355.832031 435.398438 357.625 432.652344 C 359.421875 429.910156 361.007812 427.800781 361.113281 427.90625 C 361.324219 428.117188 363.644531 431.175781 366.285156 434.867188 C 372.308594 443.097656 376.320312 445.632812 383.1875 445.632812 C 393.855469 445.632812 400.71875 437.613281 400.71875 424.953125 C 400.71875 416.933594 398.292969 410.601562 388.996094 394.882812 L 384.664062 387.496094 L 387.625 383.0625 C 389.207031 380.636719 393.328125 374.941406 396.8125 370.402344 L 403.148438 362.066406 L 405.894531 365.65625 C 413.394531 375.363281 426.914062 384.4375 433.886719 384.4375 C 437.265625 384.4375 438.746094 383.59375 443.921875 378.632812 L 450.046875 372.828125 L 450.574219 380.003906 C 450.890625 383.910156 451.738281 388.128906 452.476562 389.289062 C 454.589844 392.664062 459.660156 395.621094 468.53125 398.574219 C 490.5 406.066406 510.148438 397.625 515.957031 378.316406 C 516.695312 375.890625 517.644531 373.886719 518.070312 373.886719 C 519.125 373.886719 523.667969 385.914062 530.109375 405.539062 C 537.398438 427.695312 540.144531 434.234375 549.015625 450.484375 C 554.71875 460.929688 558.523438 469.6875 562.429688 481.398438 C 568.769531 500.285156 574.789062 512.945312 579.226562 516.742188 C 582.710938 519.59375 590 521.175781 595.28125 520.121094 C 601.617188 518.855469 605.101562 515.054688 607.53125 506.613281 C 611.546875 492.476562 611.546875 489.945312 606.6875 475.171875 C 604.257812 467.894531 601.617188 458.1875 600.773438 453.542969 C 597.179688 434.445312 588.941406 407.121094 585.035156 400.789062 C 582.710938 397.203125 578.378906 383.167969 577.113281 375.679688 C 576.476562 371.773438 574.578125 362.382812 572.886719 355 C 567.710938 332.84375 566.550781 325.351562 566.550781 315.222656 C 566.550781 298.867188 568.34375 291.695312 577.324219 272.597656 C 591.898438 241.578125 592.851562 229.023438 582.921875 194.519531 C 581.335938 189.035156 578.273438 177.113281 575.949219 167.933594 C 573.730469 158.859375 569.929688 145.671875 567.605469 138.496094 C 563.804688 126.890625 563.167969 123.828125 562.324219 109.902344 C 561.796875 101.355469 561.585938 90.066406 562.007812 84.792969 L 562.640625 75.296875 L 557.253906 75.296875 C 553.03125 75.296875 551.761719 75.71875 551.339844 77.089844 C 551.023438 78.144531 549.542969 83.738281 548.066406 89.539062 C 544.367188 103.363281 542.46875 106.421875 533.699219 113.277344 L 526.308594 119.082031 L 532.433594 119.609375 C 539.933594 120.242188 548.277344 124.570312 554.613281 131.003906 C 561.902344 138.390625 566.867188 154.003906 569.71875 178.167969 C 570.351562 183.335938 571.832031 192.199219 572.992188 197.6875 C 574.15625 203.171875 575.949219 212.140625 576.796875 217.628906 C 579.859375 235.246094 577.746094 241.789062 551.128906 295.808594 C 545.847656 306.570312 539.722656 317.4375 537.503906 320.074219 C 532.539062 325.984375 525.566406 331.363281 514.582031 337.484375 C 507.613281 341.386719 490.078125 349.617188 488.707031 349.617188 C 488.492188 349.617188 490.289062 347.613281 492.613281 345.292969 C 496.308594 341.492188 496.839844 340.332031 496.839844 336.007812 C 496.839844 329.992188 493.984375 323.769531 488.8125 318.070312 C 481.207031 309.523438 472.863281 308.363281 461.347656 314.167969 C 457.335938 316.171875 453.953125 317.648438 453.742188 317.4375 C 452.792969 316.59375 458.074219 307.414062 461.980469 302.878906 C 466.3125 297.917969 482.578125 286.628906 492.613281 281.460938 C 495.78125 279.878906 503.808594 276.605469 510.359375 274.179688 C 516.90625 271.753906 521.871094 269.539062 521.449219 269.113281 C 521.027344 268.691406 517.960938 268.585938 514.582031 269.007812 L 508.351562 269.75 L 509.511719 266.898438 C 511.835938 260.675781 514.265625 257.085938 519.441406 252.128906 L 524.828125 247.0625 L 521.449219 247.695312 C 519.546875 248.011719 517.75 247.800781 517.433594 247.378906 C 516.589844 245.796875 525.566406 234.507812 532.328125 228.707031 C 535.707031 225.75 541.304688 221.53125 544.6875 219.316406 C 547.960938 217.097656 550.496094 215.09375 550.285156 214.777344 C 549.226562 213.828125 538.558594 217.945312 533.910156 221.214844 C 531.269531 223.007812 525.992188 227.648438 522.1875 231.554688 L 515.214844 238.625 L 505.078125 232.1875 C 494.726562 225.433594 490.289062 221.320312 488.386719 216.148438 C 486.488281 211.085938 485.957031 198.425781 487.226562 188.613281 C 488.597656 178.484375 493.035156 159.597656 494.9375 156.117188 C 496.097656 154.003906 495.992188 154.003906 493.984375 155.695312 C 491.558594 157.910156 490.5 158.121094 490.5 156.222656 C 490.5 155.589844 489.339844 153.476562 487.859375 151.789062 L 485.21875 148.625 L 487.332031 153.476562 C 489.761719 159.175781 489.339844 162.761719 483.425781 188.296875 C 482.367188 192.9375 481.945312 199.058594 482.261719 207.289062 C 482.472656 217.308594 483 220.160156 485.113281 224.378906 C 486.488281 227.121094 487.4375 229.550781 487.226562 229.761719 C 487.015625 229.867188 484.480469 231.34375 481.628906 232.925781 C 475.078125 236.722656 472.542969 238.941406 467.050781 245.902344 C 461.875 252.339844 458.917969 252.972656 451.949219 249.28125 C 442.863281 244.636719 442.441406 245.164062 449.835938 251.8125 L 457.125 258.5625 L 452.6875 265.527344 L 448.144531 272.386719 L 441.386719 269.328125 C 433.78125 265.84375 419.308594 261.625 417.304688 262.363281 C 416.5625 262.574219 418.886719 263.628906 422.375 264.578125 C 429.660156 266.792969 436.84375 270.382812 441.386719 274.179688 L 444.554688 276.816406 L 441.492188 282.304688 C 429.871094 303.300781 418.148438 319.019531 410.121094 324.507812 C 404.101562 328.515625 401.039062 334.003906 397.550781 347.085938 C 395.121094 356.054688 392.375 361.328125 388.890625 363.757812 C 387.730469 364.601562 385.722656 368.292969 384.453125 371.878906 C 383.292969 375.363281 381.8125 378.421875 381.390625 378.527344 C 380.863281 378.527344 379.171875 375.574219 377.589844 371.773438 C 375.898438 367.976562 372.097656 360.484375 369.035156 355 L 363.433594 345.082031 L 365.335938 339.699219 C 367.871094 332.632812 374.316406 319.96875 379.066406 312.691406 C 382.660156 307.203125 383.714844 304.144531 389.101562 284.730469 C 390.371094 280.089844 391.953125 275.972656 392.585938 275.550781 C 393.539062 275.023438 394.066406 265.421875 394.488281 243.898438 C 395.542969 198.53125 398.398438 188.507812 416.882812 164.660156 C 428.5 149.785156 429.554688 148.203125 434.308594 139.550781 C 436.949219 134.804688 441.070312 129.316406 444.554688 126.046875 C 447.828125 122.984375 450.257812 120.242188 450.152344 120.03125 C 449.308594 119.292969 442.019531 121.824219 439.484375 123.828125 C 438.003906 124.992188 436.421875 125.941406 435.789062 125.941406 C 433.570312 125.941406 431.878906 112.433594 431.878906 93.972656 C 431.878906 77.195312 431.667969 75.296875 430.082031 75.296875 C 428.183594 75.296875 427.761719 77.722656 426.070312 98.507812 C 425.332031 107.898438 425.542969 113.382812 426.808594 123.195312 C 428.816406 138.179688 428.921875 137.96875 416.988281 151.367188 C 405.894531 163.816406 401.460938 171.625 396.074219 188.191406 C 390.371094 205.492188 388.996094 216.042969 389.207031 240.945312 C 389.417969 257.507812 389.101562 260.570312 386.671875 270.488281 C 382.765625 286.628906 377.273438 301.507812 368.1875 321.023438 L 360.160156 338.222656 L 350.867188 319.652344 C 340.304688 298.550781 333.121094 278.820312 330.691406 264.15625 C 329.742188 258.667969 328.789062 245.269531 328.472656 234.507812 C 327.839844 212.140625 325.304688 198.214844 319.074219 182.703125 C 314.53125 171.414062 309.671875 163.921875 298.792969 151.367188 C 294.039062 145.777344 289.605469 140.183594 288.863281 138.917969 C 287.914062 137.019531 287.914062 133.746094 288.863281 124.886719 C 289.921875 115.8125 289.921875 110.007812 288.863281 98.824219 C 286.859375 76.457031 286.648438 75.296875 284.21875 75.296875 C 282.316406 75.296875 282.210938 75.71875 282.84375 80.253906 C 284.535156 92.597656 284.640625 108.636719 283.054688 117.394531 C 282.210938 122.140625 281.261719 126.363281 280.941406 126.679688 C 280.730469 126.996094 277.878906 126.046875 274.816406 124.570312 C 271.753906 122.984375 267.84375 121.507812 266.050781 121.085938 C 263.199219 120.347656 263.515625 120.769531 268.691406 124.992188 C 272.703125 128.261719 276.71875 133.21875 281.894531 141.34375 C 286.011719 147.78125 292.984375 157.488281 297.527344 162.972656 C 309.671875 177.535156 316.117188 189.878906 320.65625 207.183594 C 322.242188 213.511719 322.875 221.109375 323.71875 245.058594 C 324.460938 267.003906 325.09375 275.339844 326.148438 276.289062 C 326.890625 277.027344 329.320312 283.78125 331.429688 291.273438 C 335.65625 305.515625 336.5 307.414062 341.675781 314.273438 C 345.585938 319.546875 353.613281 335.058594 355.300781 340.753906 C 356.464844 344.765625 356.359375 345.503906 353.085938 351.832031 C 351.183594 355.527344 348.753906 359.851562 347.699219 361.433594 C 346.640625 363.019531 345.902344 364.601562 346.007812 365.128906 C 346.429688 366.394531 340.515625 379.160156 339.5625 379.160156 C 339.035156 379.160156 337.664062 376.3125 336.289062 372.933594 C 335.023438 369.558594 332.59375 365.339844 330.796875 363.757812 C 326.679688 359.851562 324.882812 356.265625 322.347656 347.085938 C 319.601562 337.0625 315.585938 330.097656 310.519531 326.195312 C 301.539062 319.335938 292.457031 308.152344 282 291.378906 C 278.195312 285.152344 275.027344 279.347656 275.027344 278.503906 C 275.027344 276.078125 281.472656 271.4375 290.027344 267.53125 C 295.414062 265.105469 296.679688 264.261719 294.039062 264.789062 C 288.125 265.84375 278.9375 269.222656 275.875 271.542969 C 274.289062 272.703125 272.386719 273.652344 271.648438 273.652344 C 269.957031 273.652344 262.351562 262.890625 262.351562 260.675781 C 262.351562 259.726562 265.523438 256.136719 269.429688 252.65625 C 277.351562 245.480469 277.351562 244.636719 269.324219 249.492188 C 266.472656 251.285156 262.351562 253.078125 260.242188 253.289062 C 256.753906 253.816406 256.226562 253.394531 250.839844 247.167969 C 244.925781 240.101562 240.382812 236.511719 234.257812 233.980469 C 230.03125 232.1875 230.03125 232.082031 232.777344 226.066406 C 236.476562 217.839844 235.417969 198.109375 230.03125 176.058594 C 227.074219 163.710938 226.863281 159.808594 229.082031 155.167969 C 230.773438 151.894531 230.773438 151.894531 228.871094 154.003906 C 227.8125 155.273438 226.441406 157.171875 225.914062 158.121094 C 224.960938 159.703125 224.328125 159.808594 222.53125 158.753906 L 220.210938 157.59375 L 222.640625 163.078125 C 226.863281 172.679688 229.714844 185.867188 230.347656 199.375 C 231.300781 219.738281 228.554688 225.117188 211.546875 235.984375 L 202.464844 241.789062 L 196.867188 235.457031 C 190.210938 227.96875 182.714844 222.796875 174.261719 219.84375 C 163.382812 216.148438 162.117188 217.945312 172.042969 222.691406 C 181.023438 226.910156 195.808594 240.417969 199.507812 247.695312 C 200.351562 249.386719 201.089844 250.863281 201.089844 251.074219 C 201.089844 251.179688 199.402344 251.074219 197.394531 250.757812 C 195.386719 250.441406 193.699219 250.441406 193.699219 250.757812 C 193.699219 251.074219 195.808594 252.761719 198.238281 254.554688 C 201.621094 256.769531 203.941406 259.832031 206.902344 265.316406 L 210.808594 272.808594 L 204.472656 272.070312 C 196.761719 271.226562 194.648438 273.019531 201.300781 274.707031 C 209.222656 276.710938 223.589844 282.199219 229.609375 285.574219 C 241.441406 292.222656 255.59375 301.929688 258.550781 305.410156 C 262.035156 309.523438 266.15625 317.648438 265.3125 318.492188 C 264.992188 318.914062 261.824219 317.753906 258.234375 315.960938 C 245.03125 309.207031 232.988281 313.640625 225.808594 327.671875 C 221.6875 335.796875 222.425781 342.550781 228.34375 348.878906 C 229.820312 350.460938 230.667969 351.726562 230.03125 351.726562 C 227.496094 351.726562 196.65625 335.585938 190.847656 331.152344 C 187.253906 328.515625 182.078125 323.347656 179.4375 319.757812 C 174.898438 313.746094 148.066406 260.992188 142.894531 248.117188 C 139.195312 238.835938 138.984375 225.855469 142.363281 212.140625 C 143.84375 205.914062 146.0625 192.621094 147.222656 182.597656 C 148.386719 172.574219 149.863281 161.917969 150.496094 158.753906 C 151.976562 151.472656 156.730469 139.65625 159.792969 135.859375 C 165.601562 128.578125 180.074219 121.191406 186.515625 122.351562 L 190 122.984375 L 185.777344 119.1875 C 183.453125 117.183594 181.234375 115.496094 180.8125 115.390625 C 180.285156 115.390625 178.171875 113.703125 175.953125 111.695312 C 170.460938 106.738281 169.511719 104.523438 163.804688 80.253906 L 162.644531 75.296875 L 152.925781 75.296875 Z M 496.097656 237.355469 C 498.738281 238.308594 503.070312 240.839844 505.5 243.160156 L 510.042969 247.273438 L 503.175781 244.109375 C 489.972656 237.988281 483.210938 240.417969 474.867188 254.34375 C 467.6875 266.371094 465.152344 280.195312 469.269531 285.46875 L 471.382812 288 L 461.664062 297.074219 C 450.46875 307.308594 446.667969 313.746094 444.765625 324.929688 C 442.96875 335.902344 443.390625 339.910156 447.089844 347.613281 C 451.101562 356.054688 451.207031 358.691406 447.617188 363.96875 C 440.539062 374.519531 434.308594 378.527344 427.441406 376.945312 C 422.691406 375.890625 414.875 369.980469 410.859375 364.496094 C 407.691406 360.0625 407.585938 359.640625 407.585938 348.667969 C 407.585938 338.328125 407.796875 337.0625 410.542969 332.527344 C 412.128906 329.78125 414.242188 327.355469 415.296875 326.933594 C 416.246094 326.617188 418.886719 324.085938 421 321.34375 C 423.113281 318.597656 428.710938 311.636719 433.464844 305.832031 C 438.21875 300.027344 445.398438 289.582031 449.519531 282.621094 C 467.6875 252.023438 478.355469 238.414062 485.324219 236.722656 C 490.5 235.457031 490.710938 235.5625 496.097656 237.355469 Z M 235.417969 240.207031 C 242.8125 244.003906 250.3125 253.710938 268.796875 283.464844 C 275.554688 294.542969 280.835938 301.613281 288.863281 310.683594 C 292.140625 314.378906 296.679688 319.652344 298.898438 322.398438 C 301.222656 325.140625 303.546875 327.355469 304.179688 327.355469 C 306.082031 327.460938 310.941406 335.269531 312.628906 340.753906 C 314.425781 346.980469 314.53125 351.621094 312.628906 359.429688 C 310.835938 366.921875 307.453125 370.824219 299.109375 375.046875 C 292.035156 378.632812 287.386719 378.949219 282.84375 376.101562 C 279.253906 373.886719 273.019531 366.605469 270.484375 361.75 C 268.902344 358.691406 269.007812 358.164062 272.070312 351.726562 C 273.761719 347.929688 275.554688 342.972656 275.980469 340.648438 C 276.929688 335.269531 274.605469 322.714844 271.332031 315.222656 C 268.480469 308.890625 259.394531 298.972656 252.003906 294.4375 L 247.566406 291.589844 L 249.679688 287.367188 C 250.839844 285.152344 251.789062 281.882812 251.789062 280.089844 C 251.789062 272.175781 243.550781 254.027344 237.214844 248.011719 C 231.300781 242.316406 222.851562 242.210938 213.976562 247.484375 C 210.175781 249.808594 208.378906 249.386719 210.597656 246.640625 C 212.183594 244.847656 221.160156 240.101562 225.386719 238.835938 C 228.238281 237.988281 232.039062 238.519531 235.417969 240.207031 Z M 503.914062 248.433594 C 507.613281 250.757812 510.78125 253.078125 511.097656 253.605469 C 511.835938 254.765625 503.914062 269.539062 501.273438 271.753906 C 498.949219 273.863281 478.671875 284.203125 476.980469 284.203125 C 476.347656 284.203125 475.078125 282.832031 474.128906 281.039062 C 470.007812 273.019531 475.078125 253.710938 483.105469 246.851562 C 485.746094 244.636719 487.542969 244.109375 491.875 244.109375 C 496.519531 244.109375 498.421875 244.742188 503.914062 248.433594 Z M 235.628906 249.597656 C 238.90625 252.65625 244.820312 265 246.507812 272.175781 C 247.566406 277.132812 247.460938 278.082031 245.558594 281.988281 C 244.292969 284.414062 242.707031 286.3125 241.96875 286.3125 C 241.226562 286.3125 235.207031 283.570312 228.554688 280.195312 L 216.511719 274.179688 L 211.863281 266.371094 C 207.746094 259.410156 207.324219 258.351562 208.589844 256.136719 C 209.964844 253.5 217.144531 248.753906 222.109375 247.167969 C 226.546875 245.796875 232.777344 246.851562 235.628906 249.597656 Z M 557.148438 316.59375 C 557.78125 318.28125 558.734375 327.566406 559.261719 337.484375 C 560.847656 365.761719 561.480469 369.875 565.386719 374.730469 C 574.261719 386.019531 580.386719 400.15625 583.34375 416.828125 C 584.613281 424.105469 586.511719 430.332031 588.414062 434.023438 C 590.105469 437.191406 592.535156 444.574219 593.90625 450.378906 C 595.175781 456.183594 596.96875 463.039062 597.921875 465.675781 C 603.414062 481.820312 604.785156 487.835938 604.890625 495.746094 C 605.207031 508.410156 600.773438 514.527344 590.527344 515.898438 C 586.40625 516.53125 585.5625 516.214844 582.078125 513.261719 C 580.070312 511.363281 577.113281 507.882812 575.738281 505.453125 C 572.570312 500.074219 567.289062 485.300781 565.597656 477.285156 C 564.964844 474.117188 562.113281 466.945312 559.261719 461.457031 C 556.515625 455.972656 550.601562 444.257812 546.164062 435.609375 C 541.199219 425.796875 536.023438 413.449219 532.644531 403.425781 C 529.6875 394.460938 524.933594 381.796875 522.082031 375.46875 C 519.335938 369.03125 516.695312 361.75 516.378906 359.113281 C 516.0625 356.476562 515.324219 352.679688 514.792969 350.671875 C 512.894531 343.921875 513.105469 343.605469 523.5625 338.433594 C 538.558594 330.835938 544.898438 326.195312 550.707031 318.386719 C 552.714844 315.855469 554.613281 313.746094 555.140625 313.746094 C 555.671875 313.746094 556.515625 315.011719 557.148438 316.59375 Z M 483 316.804688 C 489.234375 319.96875 494.726562 329.148438 494.726562 336.21875 C 494.726562 342.128906 491.34375 345.714844 478.460938 353.628906 C 464.304688 362.382812 460.609375 363.019531 455.960938 357.636719 C 451.632812 352.785156 445.820312 338.539062 446.667969 335.058594 C 447.617188 331.046875 457.863281 321.765625 465.257812 318.070312 C 472.863281 314.273438 477.296875 313.957031 483 316.804688 Z M 169.722656 322.714844 C 175.847656 329.675781 183.980469 335.375 196.445312 341.386719 C 201.410156 343.816406 205.738281 346.453125 206.054688 347.191406 C 207.21875 350.039062 202.886719 368.292969 199.296875 376.523438 C 197.183594 381.164062 192.535156 394.144531 188.839844 405.328125 C 181.65625 427.0625 179.015625 433.179688 165.496094 460.191406 C 160.636719 469.792969 156.730469 478.761719 156.730469 480.34375 C 156.730469 484.246094 153.984375 494.375 150.601562 503.132812 C 147.011719 512.417969 139.722656 520.542969 134.972656 520.542969 C 130.21875 520.542969 122.71875 516.109375 120.605469 511.996094 C 116.910156 504.925781 119.128906 482.558594 124.410156 472.535156 C 125.359375 470.742188 126.097656 467.894531 126.097656 466.203125 C 126.097656 460.71875 132.117188 439.195312 134.546875 435.925781 C 136.238281 433.707031 137.1875 429.804688 138.246094 421.996094 C 140.359375 406.277344 146.167969 390.765625 153.5625 381.269531 C 159.265625 373.992188 159.582031 372.511719 160.214844 351.199219 C 160.742188 332.84375 162.539062 316.910156 164.015625 316.910156 C 164.335938 316.910156 166.976562 319.546875 169.722656 322.714844 Z M 255.277344 320.074219 C 261.71875 323.136719 271.121094 331.683594 272.914062 336.007812 C 274.605469 340.015625 272.914062 345.292969 266.472656 356.160156 C 261.613281 364.390625 260.453125 364.8125 251.472656 360.800781 C 243.867188 357.425781 231.300781 349.195312 228.027344 345.292969 C 221.898438 338.011719 226.757812 324.296875 237.53125 318.492188 C 241.652344 316.277344 248.621094 316.910156 255.277344 320.074219 Z M 509.511719 352.148438 C 509.511719 355.316406 509.089844 359.007812 508.5625 360.378906 C 508.140625 361.75 507.402344 364.179688 506.976562 365.761719 C 506.34375 368.503906 506.449219 368.714844 508.5625 368.082031 C 510.78125 367.34375 510.886719 367.554688 510.253906 372.195312 C 509.300781 378.84375 505.078125 386.757812 500.429688 390.554688 C 492.085938 397.414062 478.777344 397.835938 465.046875 391.503906 C 455.117188 386.96875 452.898438 384.121094 453.214844 375.890625 C 453.636719 366.289062 454.589844 364.8125 461.136719 363.96875 C 464.304688 363.546875 475.289062 359.640625 486.804688 354.894531 C 497.894531 350.355469 507.507812 346.558594 508.246094 346.558594 C 509.089844 346.453125 509.511719 348.246094 509.511719 352.148438 Z M 222.746094 352.890625 C 233.09375 357.109375 248.832031 363.019531 255.910156 365.339844 C 257.917969 365.972656 260.558594 366.5 261.929688 366.5 C 265.207031 366.5 267.632812 371.246094 267.632812 377.578125 C 267.632812 386.441406 263.199219 391.082031 249.890625 395.9375 C 240.59375 399.417969 229.714844 398.785156 222.53125 394.355469 C 216.089844 390.34375 211.546875 383.167969 210.808594 375.785156 C 210.386719 370.929688 210.492188 370.402344 212.183594 371.140625 C 213.554688 371.667969 213.871094 371.351562 213.449219 369.980469 C 210.703125 360.273438 210.386719 358.058594 211.019531 353.523438 C 211.441406 350.777344 211.863281 348.5625 212.078125 348.5625 C 212.183594 348.5625 217.039062 350.460938 222.746094 352.890625 Z M 363.964844 355.632812 C 367.976562 362.382812 370.089844 367.238281 372.835938 375.996094 C 373.785156 379.160156 375.371094 382.851562 376.214844 384.226562 C 378.011719 386.96875 377.378906 388.128906 370.933594 394.039062 C 368.503906 396.253906 365.863281 400.261719 364.28125 404.058594 C 362.90625 407.4375 361.113281 410.285156 360.371094 410.285156 C 359.632812 410.285156 358.578125 408.175781 357.941406 405.328125 C 357.097656 401.210938 355.726562 399.207031 350.335938 393.933594 C 343.472656 387.390625 342.628906 385.597656 345.164062 383.488281 C 345.902344 382.851562 347.378906 379.160156 348.4375 375.257812 C 350.972656 365.761719 358.257812 349.617188 359.949219 349.617188 C 360.160156 349.617188 361.957031 352.363281 363.964844 355.632812 Z M 386.355469 399.523438 C 388.46875 402.582031 391.320312 407.859375 392.902344 411.234375 C 398.503906 423.578125 394.382812 436.136719 384.664062 436.136719 C 379.382812 436.136719 376.320312 434.023438 370.40625 426.324219 L 365.546875 420.097656 L 367.871094 415.351562 C 369.140625 412.710938 372.308594 407.332031 374.949219 403.320312 C 377.484375 399.3125 379.914062 395.304688 380.230469 394.460938 C 381.074219 392.242188 382.128906 393.191406 386.355469 399.523438 Z M 343.894531 399.417969 C 352.765625 412.816406 355.300781 417.25 355.300781 419.042969 C 355.300781 421.679688 349.597656 430.015625 345.164062 434.023438 C 340.515625 438.140625 335.65625 438.246094 331.113281 434.445312 C 326.253906 430.4375 325.09375 424.738281 327.3125 416.511719 C 329 410.179688 337.769531 393.933594 339.351562 393.933594 C 339.777344 393.933594 341.78125 396.464844 343.894531 399.417969 Z M 343.894531 399.417969 " fill-opacity="1" fill-rule="nonzero"/></g><path fill="#000000" d="M 506.34375 114.019531 C 495.78125 116.65625 493.984375 116.761719 466.628906 114.757812 C 460.925781 114.335938 456.277344 114.441406 455.117188 115.074219 C 453.742188 115.8125 455.328125 116.234375 461.242188 116.761719 C 465.679688 117.078125 474.023438 118.449219 479.9375 119.714844 C 489.445312 121.824219 491.453125 121.929688 496.625 120.875 C 502.332031 119.714844 517.960938 112.960938 517.960938 111.695312 C 517.960938 110.957031 517.960938 110.957031 506.34375 114.019531 Z M 506.34375 114.019531 " fill-opacity="1" fill-rule="nonzero"/><path fill="#000000" d="M 198.980469 115.917969 C 200.5625 117.816406 215.5625 122.667969 222.320312 123.511719 C 225.808594 123.933594 230.558594 123.300781 238.480469 121.191406 C 246.296875 119.292969 251.683594 118.449219 256.121094 118.765625 C 261.507812 119.082031 262.140625 118.871094 260.558594 117.710938 C 258.445312 116.128906 246.296875 116.550781 233.941406 118.765625 C 225.386719 120.242188 214.929688 119.292969 206.902344 116.550781 C 199.191406 113.808594 197.078125 113.703125 198.980469 115.917969 Z M 198.980469 115.917969 " fill-opacity="1" fill-rule="nonzero"/><g fill="#000000" fill-opacity="1"><g transform="translate(190.805674, 566.412262)"><g><path d="M 70.527344 -72.710938 L 47.382812 -22.417969 L 24.480469 -72.710938 L 7.148438 -72.710938 L 7.148438 0 L 23.144531 0 L 23.144531 -43.382812 L 42.777344 0 L 51.988281 0 L 71.742188 -43.261719 L 71.742188 0 L 87.738281 0 L 87.738281 -72.710938 Z M 70.527344 -72.710938 "/></g></g></g><g fill="#000000" fill-opacity="1"><g transform="translate(277.34632, 566.412262)"><g><path d="M 51.503906 -58.652344 L 51.503906 -72.710938 L 7.753906 -72.710938 L 7.753906 0 L 51.503906 0 L 51.503906 -14.058594 L 23.753906 -14.058594 L 23.753906 -29.328125 L 47.503906 -29.328125 L 47.503906 -43.382812 L 23.753906 -43.382812 L 23.753906 -58.652344 Z M 51.503906 -58.652344 "/></g></g></g><g fill="#000000" fill-opacity="1"><g transform="translate(325.475214, 566.412262)"><g><path d="M 7.148438 0 L 31.144531 0 C 51.140625 0 67.5 -16.238281 67.5 -36.355469 C 67.5 -56.472656 51.140625 -72.710938 31.144531 -72.710938 L 7.148438 -72.710938 Z M 23.144531 -14.179688 L 23.144531 -58.53125 L 31.023438 -58.53125 C 42.535156 -58.53125 51.503906 -48.957031 51.503906 -36.355469 C 51.503906 -23.753906 42.535156 -14.179688 31.023438 -14.179688 Z M 23.144531 -14.179688 "/></g></g></g><g fill="#000000" fill-opacity="1"><g transform="translate(389.114216, 566.412262)"><g><path d="M 7.753906 0 L 23.753906 0 L 23.753906 -72.710938 L 7.753906 -72.710938 Z M 7.753906 0 "/></g></g></g><g fill="#000000" fill-opacity="1"><g transform="translate(412.160368, 566.412262)"><g><path d="M 51.625 0 L 68.710938 0 L 42.535156 -72.710938 L 24.601562 -72.710938 L -1.574219 0 L 15.511719 0 L 19.996094 -13.695312 L 47.140625 -13.695312 Z M 24.238281 -27.023438 L 33.566406 -55.867188 L 42.898438 -27.023438 Z M 24.238281 -27.023438 "/></g></g></g><g fill="#000000" fill-opacity="1"><g transform="translate(470.952454, 566.412262)"><g><path d="M 23.144531 -14.179688 L 23.144531 -72.710938 L 7.148438 -72.710938 L 7.148438 0 L 47.261719 0 L 47.261719 -14.179688 Z M 23.144531 -14.179688 "/></g></g></g><g fill="#000000" fill-opacity="1"><g transform="translate(187.675705, 657.524651)"><g><path d="M 70.527344 -72.710938 L 47.382812 -22.417969 L 24.480469 -72.710938 L 7.148438 -72.710938 L 7.148438 0 L 23.144531 0 L 23.144531 -43.382812 L 42.777344 0 L 51.988281 0 L 71.742188 -43.261719 L 71.742188 0 L 87.738281 0 L 87.738281 -72.710938 Z M 70.527344 -72.710938 "/></g></g></g><g fill="#000000" fill-opacity="1"><g transform="translate(274.216351, 657.524651)"><g><path d="M 51.625 0 L 68.710938 0 L 42.535156 -72.710938 L 24.601562 -72.710938 L -1.574219 0 L 15.511719 0 L 19.996094 -13.695312 L 47.140625 -13.695312 Z M 24.238281 -27.023438 L 33.566406 -55.867188 L 42.898438 -27.023438 Z M 24.238281 -27.023438 "/></g></g></g><g fill="#000000" fill-opacity="1"><g transform="translate(333.008447, 657.524651)"><g><path d="M 51.988281 -72.710938 L -0.605469 -72.710938 L -0.605469 -58.53125 L 17.8125 -58.53125 L 17.8125 0 L 33.6875 0 L 33.6875 -58.53125 L 51.988281 -58.53125 Z M 51.988281 -72.710938 "/></g></g></g><g fill="#000000" fill-opacity="1"><g transform="translate(376.048094, 657.524651)"><g><path d="M 41.808594 0.96875 C 56.230469 0.96875 68.710938 -7.148438 74.890625 -19.027344 L 61.078125 -26.175781 C 57.5625 -19.269531 50.414062 -14.664062 41.808594 -14.664062 C 29.570312 -14.664062 20.238281 -24.117188 20.238281 -36.355469 C 20.238281 -48.59375 29.570312 -58.046875 41.808594 -58.046875 C 50.414062 -58.046875 57.5625 -53.441406 61.078125 -46.535156 L 74.890625 -53.683594 C 68.710938 -65.5625 56.230469 -73.679688 41.808594 -73.679688 C 21.207031 -73.679688 4.484375 -56.957031 4.484375 -36.355469 C 4.484375 -15.753906 21.207031 0.96875 41.808594 0.96875 Z M 41.808594 0.96875 "/></g></g></g><g fill="#000000" fill-opacity="1"><g transform="translate(445.745733, 657.524651)"><g><path d="M 52.714844 -72.710938 L 52.714844 -43.503906 L 23.144531 -43.503906 L 23.144531 -72.710938 L 7.148438 -72.710938 L 7.148438 0 L 23.144531 0 L 23.144531 -29.328125 L 52.714844 -29.328125 L 52.714844 0 L 68.589844 0 L 68.589844 -72.710938 Z M 52.714844 -72.710938 "/></g></g></g></svg>
