<svg xmlns="http://www.w3.org/2000/svg" xmlns:xlink="http://www.w3.org/1999/xlink" zoomAndPan="magnify" preserveAspectRatio="xMidYMid meet" version="1.0" viewBox="78.53 75.68 147.15 156.68"><defs><g/><clipPath id="e0583b1cbe"><path d="M 93.0625 75.703125 L 210.726562 75.703125 L 210.726562 191.066406 L 93.0625 191.066406 Z M 93.0625 75.703125 " clip-rule="nonzero"/></clipPath></defs><g clip-path="url(#e0583b1cbe)"><path fill="#000000" d="M 146.332031 185.898438 C 143.847656 182.382812 145.007812 177.949219 148.808594 175.992188 C 150.222656 175.261719 151.882812 174.875 153.523438 174.65625 C 155.804688 174.351562 158.128906 174.328125 159.628906 174.351562 C 163.058594 174.394531 166.429688 174.511719 168.875 173.921875 C 174.386719 172.597656 175.425781 166.023438 169.515625 164.40625 C 168.730469 164.191406 167.816406 164.074219 166.789062 164.089844 C 161.265625 164.179688 155.988281 166.453125 150.648438 167.65625 C 143.328125 169.304688 134.828125 169.011719 130.980469 161.457031 C 128.972656 157.515625 129.066406 152.546875 131.957031 148.355469 C 133.695312 145.839844 136.402344 143.769531 140.0625 142.691406 C 143.636719 141.640625 148.371094 141.167969 152.351562 140.441406 C 155.417969 139.878906 157.933594 139.09375 159.699219 138.234375 C 163.289062 136.480469 163.828125 132.851562 159.917969 131.6875 C 158.671875 131.320312 157.226562 131.304688 156.074219 131.324219 C 152.476562 131.382812 148.503906 131.65625 144.984375 130.699219 C 138.316406 128.878906 135.148438 122.195312 137.261719 116.863281 C 138.058594 114.859375 139.464844 113.316406 141.183594 112.210938 C 142.859375 111.140625 144.839844 110.480469 146.847656 110.214844 C 148 110.0625 149.195312 109.976562 150.605469 109.714844 C 155.066406 108.894531 154.382812 105.453125 151.109375 104.769531 C 150.695312 104.675781 150.320312 104.683594 149.929688 104.75 C 149.65625 104.796875 149.347656 104.886719 148.976562 105.015625 C 146.605469 105.792969 142.976562 101.804688 141.695312 100.1875 C 141.109375 100.167969 140.195312 99.539062 140.574219 98.769531 C 140.117188 98.070312 139.734375 97.441406 139.449219 96.886719 C 139.199219 96.398438 139.113281 96.027344 139.117188 95.71875 C 139.121094 95.472656 139.195312 95.207031 139.316406 94.953125 C 138.972656 94.769531 138.566406 94.589844 138.078125 94.410156 C 137.460938 94.1875 136.84375 93.957031 136.21875 93.742188 C 135.265625 93.410156 134.253906 93.015625 133.980469 92.75 C 133.9375 92.703125 133.902344 92.660156 133.878906 92.625 C 133.867188 92.609375 134.097656 92.75 134.40625 92.878906 C 135.039062 93.148438 135.90625 93.394531 136.582031 93.578125 C 137.027344 93.703125 137.894531 93.960938 138.769531 94.265625 C 138.082031 93.632812 137.433594 92.980469 137.113281 92.640625 C 136.628906 92.140625 136.007812 91.488281 135.472656 91.054688 C 135.210938 90.851562 134.980469 90.714844 135 90.714844 C 135.039062 90.71875 135.089844 90.730469 135.152344 90.75 C 135.519531 90.859375 136.339844 91.566406 137.089844 92.25 C 137.570312 92.691406 138.066406 93.128906 138.550781 93.566406 C 138.953125 93.925781 139.324219 94.203125 139.652344 94.425781 C 139.851562 94.1875 140.085938 93.992188 140.332031 93.886719 C 140.59375 93.773438 140.941406 93.710938 141.429688 93.730469 C 142.070312 93.765625 142.820312 93.851562 143.675781 93.988281 C 144.21875 93.324219 145.179688 93.898438 145.4375 94.417969 C 147.574219 94.949219 152.558594 96.597656 152.820312 99.085938 C 152.898438 99.816406 153.574219 100.40625 154.433594 100.867188 C 154.792969 101.058594 155.140625 101.242188 155.46875 101.429688 C 158.15625 102.976562 159.722656 105.925781 159.546875 108.800781 C 159.332031 112.265625 156.792969 114.496094 153.707031 115.636719 C 152.007812 116.269531 150.167969 116.605469 148.367188 117.054688 C 144.152344 118.101562 144.214844 121.761719 149.488281 121.773438 C 152.347656 121.773438 155.238281 121.539062 158.023438 121.59375 C 164.109375 121.714844 168.617188 124.324219 171.207031 127.90625 C 175.730469 134.167969 174.210938 142.242188 167.488281 146.355469 C 164.074219 148.449219 159.742188 149.554688 155.773438 150.195312 C 150.605469 151.03125 145.546875 151.429688 142.152344 153.070312 C 137.753906 155.199219 138.785156 159.132812 143.617188 158.6875 C 147.46875 158.324219 152.042969 157.527344 155.828125 156.449219 C 164.355469 154.023438 170.597656 155.003906 174.652344 157.597656 C 183.386719 163.183594 182.121094 176.234375 171.359375 178.832031 C 165.476562 180.25 160.027344 178.523438 154.171875 178.652344 C 146.660156 178.820312 146.652344 184.34375 152.4375 186.851562 C 154.679688 187.820312 157.34375 188.214844 159.269531 188.34375 C 161.40625 188.492188 163.566406 188.378906 165.714844 188.050781 C 170.472656 187.339844 175.144531 185.601562 179.203125 183.417969 C 179.933594 183.023438 180.660156 182.613281 181.367188 182.191406 C 182.082031 181.765625 182.785156 181.328125 183.46875 180.882812 C 184.15625 180.429688 184.824219 179.96875 185.484375 179.496094 C 186.140625 179.023438 186.777344 178.542969 187.398438 178.050781 C 188.824219 176.902344 190.199219 175.679688 191.519531 174.386719 C 192.820312 173.105469 194.066406 171.753906 195.253906 170.335938 C 196.421875 168.929688 197.535156 167.460938 198.578125 165.925781 C 199.605469 164.410156 200.570312 162.839844 201.464844 161.199219 C 202.359375 159.558594 203.164062 157.890625 203.878906 156.214844 C 204.605469 154.503906 205.242188 152.777344 205.785156 151.035156 C 206.335938 149.273438 206.800781 147.496094 207.171875 145.710938 C 207.542969 143.90625 207.828125 142.089844 208.019531 140.273438 C 208.214844 138.441406 208.320312 136.601562 208.332031 134.769531 C 208.34375 132.921875 208.265625 131.082031 208.097656 129.25 C 207.929688 127.410156 207.667969 125.582031 207.320312 123.777344 C 206.972656 121.964844 206.535156 120.171875 206.011719 118.398438 C 204.964844 114.867188 203.570312 111.433594 201.84375 108.160156 C 200.140625 104.917969 198.109375 101.828125 195.769531 98.953125 C 193.484375 96.128906 190.894531 93.5 188.027344 91.125 C 185.230469 88.808594 182.171875 86.730469 178.859375 84.9375 C 177.210938 84.042969 175.546875 83.242188 173.855469 82.527344 C 172.140625 81.804688 170.410156 81.175781 168.660156 80.628906 C 166.894531 80.078125 165.109375 79.621094 163.316406 79.25 C 161.503906 78.875 159.683594 78.59375 157.859375 78.402344 C 156.019531 78.207031 154.175781 78.105469 152.335938 78.089844 C 150.484375 78.082031 148.636719 78.15625 146.796875 78.324219 C 144.953125 78.496094 143.121094 78.75 141.304688 79.09375 C 139.488281 79.445312 137.6875 79.878906 135.910156 80.40625 C 134.140625 80.925781 132.386719 81.535156 130.671875 82.226562 C 128.957031 82.921875 127.277344 83.695312 125.636719 84.558594 C 124.003906 85.410156 122.410156 86.339844 120.863281 87.355469 C 119.324219 88.363281 117.835938 89.445312 116.394531 90.609375 C 114.964844 91.753906 113.59375 92.976562 112.277344 94.273438 C 110.972656 95.554688 109.726562 96.90625 108.539062 98.328125 C 107.371094 99.726562 106.261719 101.199219 105.21875 102.734375 C 104.1875 104.246094 103.222656 105.824219 102.332031 107.464844 C 100.660156 110.523438 99.296875 113.675781 98.234375 116.890625 C 97.148438 120.179688 96.378906 123.535156 95.902344 126.910156 C 95.425781 130.351562 95.257812 133.820312 95.398438 137.269531 C 95.53125 140.761719 95.980469 144.242188 96.726562 147.664062 C 97.160156 149.667969 97.699219 151.660156 98.335938 153.621094 C 98.976562 155.582031 99.714844 157.511719 100.550781 159.40625 C 103.578125 166.285156 108.65625 173.792969 114.046875 179.046875 C 114.015625 179.027344 113.960938 178.992188 113.890625 178.941406 C 108.796875 175.160156 103.582031 168.375 100.5 162.867188 C 98.414062 159.132812 96.734375 155.148438 95.488281 150.933594 C 94.9375 149.09375 94.484375 147.21875 94.121094 145.328125 C 93.753906 143.441406 93.484375 141.539062 93.3125 139.625 C 93.136719 137.714844 93.054688 135.796875 93.066406 133.875 C 93.078125 131.964844 93.1875 130.046875 93.386719 128.132812 C 93.589844 126.242188 93.886719 124.351562 94.277344 122.46875 C 94.664062 120.609375 95.144531 118.75 95.71875 116.917969 C 96.289062 115.105469 96.953125 113.300781 97.710938 111.519531 C 98.453125 109.769531 99.292969 108.03125 100.226562 106.324219 C 101.15625 104.617188 102.167969 102.96875 103.238281 101.390625 C 104.324219 99.789062 105.484375 98.257812 106.703125 96.796875 C 107.9375 95.316406 109.238281 93.90625 110.597656 92.574219 C 111.96875 91.226562 113.402344 89.949219 114.890625 88.75 C 116.386719 87.542969 117.945312 86.414062 119.542969 85.363281 C 121.160156 84.304688 122.820312 83.335938 124.519531 82.445312 C 126.230469 81.550781 127.984375 80.742188 129.769531 80.019531 C 131.554688 79.296875 133.382812 78.664062 135.234375 78.117188 C 137.085938 77.570312 138.960938 77.117188 140.859375 76.757812 C 142.753906 76.390625 144.660156 76.121094 146.585938 75.949219 C 148.5 75.777344 150.425781 75.695312 152.355469 75.703125 C 154.273438 75.71875 156.195312 75.824219 158.113281 76.027344 C 160.015625 76.226562 161.910156 76.523438 163.800781 76.910156 C 165.667969 77.296875 167.527344 77.777344 169.371094 78.347656 C 171.191406 78.917969 172.996094 79.578125 174.785156 80.332031 C 176.546875 81.074219 178.289062 81.910156 180.003906 82.839844 C 181.71875 83.765625 183.367188 84.773438 184.953125 85.839844 C 186.554688 86.921875 188.09375 88.078125 189.558594 89.289062 C 191.046875 90.523438 192.460938 91.820312 193.800781 93.171875 C 195.152344 94.539062 196.433594 95.96875 197.636719 97.453125 C 198.847656 98.941406 199.980469 100.496094 201.035156 102.089844 C 202.097656 103.703125 203.070312 105.355469 203.964844 107.050781 C 204.863281 108.753906 205.675781 110.5 206.398438 112.28125 C 207.121094 114.058594 207.761719 115.878906 208.304688 117.726562 C 208.851562 119.570312 209.308594 121.441406 209.671875 123.332031 C 210.035156 125.21875 210.304688 127.125 210.484375 129.039062 C 210.65625 130.941406 210.738281 132.863281 210.726562 134.789062 C 210.714844 136.699219 210.605469 138.613281 210.402344 140.523438 C 210.203125 142.417969 209.902344 144.308594 209.511719 146.191406 C 209.125 148.050781 208.648438 149.90625 208.074219 151.742188 C 207.503906 153.558594 206.84375 155.355469 206.085938 157.136719 C 205.335938 158.894531 204.5 160.628906 203.566406 162.339844 C 202.632812 164.046875 201.628906 165.691406 200.554688 167.269531 C 199.464844 168.867188 198.3125 170.402344 197.089844 171.863281 C 195.855469 173.339844 194.554688 174.75 193.199219 176.089844 C 191.820312 177.4375 190.394531 178.710938 188.90625 179.910156 C 185.730469 182.46875 182.175781 184.808594 178.394531 186.679688 C 174.957031 188.378906 171.332031 189.695312 167.628906 190.4375 C 162.777344 191.414062 156.125 191.339844 151.457031 189.574219 C 149.40625 188.800781 147.558594 187.636719 146.332031 185.898438 " fill-opacity="1" fill-rule="evenodd"/></g><g fill="#000000" fill-opacity="1"><g transform="translate(75.665385, 232.024528)"><g><path d="M 2.890625 -35 L 8.203125 -35 C 9.003906 -35 9.882812 -34.945312 10.84375 -34.84375 C 11.8125 -34.738281 12.773438 -34.503906 13.734375 -34.140625 C 14.691406 -33.785156 15.566406 -33.21875 16.359375 -32.4375 C 17.160156 -31.65625 17.800781 -30.59375 18.28125 -29.25 C 18.757812 -27.914062 19 -26.21875 19 -24.15625 L 19 -22.9375 C 19 -20.695312 18.773438 -18.832031 18.328125 -17.34375 C 17.890625 -15.851562 17.300781 -14.660156 16.5625 -13.765625 C 15.820312 -12.867188 14.992188 -12.195312 14.078125 -11.75 C 13.171875 -11.3125 12.253906 -11.019531 11.328125 -10.875 C 10.398438 -10.726562 9.523438 -10.65625 8.703125 -10.65625 L 8.203125 -10.65625 L 8.203125 0 L 2.890625 0 Z M 8.46875 -14.546875 C 10.394531 -14.546875 11.722656 -15.117188 12.453125 -16.265625 C 13.179688 -17.421875 13.546875 -19.316406 13.546875 -21.953125 L 13.546875 -25.109375 C 13.546875 -27.179688 13.195312 -28.707031 12.5 -29.6875 C 11.8125 -30.675781 10.46875 -31.171875 8.46875 -31.171875 L 8.203125 -31.171875 L 8.203125 -14.546875 Z M 8.46875 -14.546875 "/></g></g><g transform="translate(96.055238, 232.024528)"><g><path d="M 2.640625 -28.21875 L 6.4375 -28.21875 L 6.890625 -25.34375 C 7.441406 -26.414062 8.09375 -27.21875 8.84375 -27.75 C 9.601562 -28.28125 10.367188 -28.546875 11.140625 -28.546875 C 14.054688 -28.546875 15.515625 -26.710938 15.515625 -23.046875 C 15.515625 -22.585938 15.445312 -21.976562 15.3125 -21.21875 C 15.175781 -20.457031 15.007812 -19.789062 14.8125 -19.21875 L 11.203125 -19.21875 L 11.203125 -21.421875 C 11.203125 -22.546875 11.03125 -23.3125 10.6875 -23.71875 C 10.351562 -24.125 9.929688 -24.328125 9.421875 -24.328125 C 8.785156 -24.328125 8.253906 -23.820312 7.828125 -22.8125 L 7.828125 0 L 2.640625 0 Z M 2.640625 -28.21875 "/></g></g><g transform="translate(112.080229, 232.024528)"><g><path d="M 9.75 0.3125 C 8.851562 0.3125 7.945312 0.179688 7.03125 -0.078125 C 6.113281 -0.347656 5.269531 -0.894531 4.5 -1.71875 C 3.726562 -2.539062 3.109375 -3.78125 2.640625 -5.4375 C 2.179688 -7.101562 1.953125 -9.328125 1.953125 -12.109375 L 1.953125 -16.53125 C 1.953125 -19.28125 2.1875 -21.457031 2.65625 -23.0625 C 3.132812 -24.664062 3.765625 -25.859375 4.546875 -26.640625 C 5.328125 -27.429688 6.175781 -27.945312 7.09375 -28.1875 C 8.007812 -28.425781 8.90625 -28.546875 9.78125 -28.546875 C 10.625 -28.546875 11.492188 -28.429688 12.390625 -28.203125 C 13.296875 -27.984375 14.128906 -27.484375 14.890625 -26.703125 C 15.660156 -25.929688 16.285156 -24.738281 16.765625 -23.125 C 17.242188 -21.507812 17.484375 -19.3125 17.484375 -16.53125 L 17.484375 -12.109375 C 17.484375 -9.359375 17.234375 -7.160156 16.734375 -5.515625 C 16.242188 -3.867188 15.609375 -2.625 14.828125 -1.78125 C 14.054688 -0.945312 13.222656 -0.390625 12.328125 -0.109375 C 11.429688 0.171875 10.570312 0.3125 9.75 0.3125 Z M 9.796875 -3.546875 C 10.722656 -3.546875 11.367188 -4.054688 11.734375 -5.078125 C 12.097656 -6.109375 12.28125 -7.941406 12.28125 -10.578125 L 12.28125 -17.609375 C 12.28125 -20.253906 12.097656 -22.09375 11.734375 -23.125 C 11.367188 -24.164062 10.722656 -24.6875 9.796875 -24.6875 C 8.828125 -24.6875 8.144531 -24.164062 7.75 -23.125 C 7.351562 -22.09375 7.15625 -20.253906 7.15625 -17.609375 L 7.15625 -10.578125 C 7.15625 -7.941406 7.351562 -6.109375 7.75 -5.078125 C 8.144531 -4.054688 8.828125 -3.546875 9.796875 -3.546875 Z M 9.796875 -3.546875 "/></g></g><g transform="translate(131.506944, 232.024528)"><g><path d="M 1.953125 -11.5625 L 1.953125 -16.890625 C 1.953125 -19.046875 2.128906 -20.832031 2.484375 -22.25 C 2.847656 -23.675781 3.320312 -24.8125 3.90625 -25.65625 C 4.5 -26.5 5.148438 -27.125 5.859375 -27.53125 C 6.566406 -27.945312 7.269531 -28.21875 7.96875 -28.34375 C 8.664062 -28.476562 9.300781 -28.546875 9.875 -28.546875 C 11.789062 -28.546875 13.34375 -28.039062 14.53125 -27.03125 C 15.71875 -26.019531 16.3125 -24.457031 16.3125 -22.34375 C 16.3125 -21.695312 16.28125 -21.132812 16.21875 -20.65625 C 16.15625 -20.175781 16.070312 -19.71875 15.96875 -19.28125 L 12.03125 -19.28125 L 12.03125 -20.171875 C 12.03125 -21.585938 11.832031 -22.691406 11.4375 -23.484375 C 11.050781 -24.285156 10.476562 -24.6875 9.71875 -24.6875 C 8.882812 -24.6875 8.25 -24.222656 7.8125 -23.296875 C 7.375 -22.378906 7.15625 -20.707031 7.15625 -18.28125 L 7.15625 -10.265625 C 7.15625 -7.804688 7.347656 -6.070312 7.734375 -5.0625 C 8.117188 -4.050781 8.820312 -3.546875 9.84375 -3.546875 C 10.351562 -3.546875 10.84375 -3.820312 11.3125 -4.375 C 11.789062 -4.925781 12.03125 -5.945312 12.03125 -7.4375 L 12.03125 -8.671875 L 16.234375 -8.671875 L 16.234375 -7.375 C 16.234375 -4.695312 15.65625 -2.742188 14.5 -1.515625 C 13.351562 -0.296875 11.609375 0.3125 9.265625 0.3125 C 6.890625 0.3125 5.078125 -0.613281 3.828125 -2.46875 C 2.578125 -4.332031 1.953125 -7.363281 1.953125 -11.5625 Z M 1.953125 -11.5625 "/></g></g><g transform="translate(149.191812, 232.024528)"><g><path d="M 9.75 0.3125 C 8.851562 0.3125 7.945312 0.179688 7.03125 -0.078125 C 6.113281 -0.347656 5.269531 -0.894531 4.5 -1.71875 C 3.726562 -2.539062 3.109375 -3.78125 2.640625 -5.4375 C 2.179688 -7.101562 1.953125 -9.328125 1.953125 -12.109375 L 1.953125 -16.53125 C 1.953125 -19.28125 2.1875 -21.457031 2.65625 -23.0625 C 3.132812 -24.664062 3.765625 -25.859375 4.546875 -26.640625 C 5.328125 -27.429688 6.175781 -27.945312 7.09375 -28.1875 C 8.007812 -28.425781 8.90625 -28.546875 9.78125 -28.546875 C 10.625 -28.546875 11.492188 -28.429688 12.390625 -28.203125 C 13.296875 -27.984375 14.128906 -27.484375 14.890625 -26.703125 C 15.660156 -25.929688 16.285156 -24.738281 16.765625 -23.125 C 17.242188 -21.507812 17.484375 -19.3125 17.484375 -16.53125 L 17.484375 -12.109375 C 17.484375 -9.359375 17.234375 -7.160156 16.734375 -5.515625 C 16.242188 -3.867188 15.609375 -2.625 14.828125 -1.78125 C 14.054688 -0.945312 13.222656 -0.390625 12.328125 -0.109375 C 11.429688 0.171875 10.570312 0.3125 9.75 0.3125 Z M 9.796875 -3.546875 C 10.722656 -3.546875 11.367188 -4.054688 11.734375 -5.078125 C 12.097656 -6.109375 12.28125 -7.941406 12.28125 -10.578125 L 12.28125 -17.609375 C 12.28125 -20.253906 12.097656 -22.09375 11.734375 -23.125 C 11.367188 -24.164062 10.722656 -24.6875 9.796875 -24.6875 C 8.828125 -24.6875 8.144531 -24.164062 7.75 -23.125 C 7.351562 -22.09375 7.15625 -20.253906 7.15625 -17.609375 L 7.15625 -10.578125 C 7.15625 -7.941406 7.351562 -6.109375 7.75 -5.078125 C 8.144531 -4.054688 8.828125 -3.546875 9.796875 -3.546875 Z M 9.796875 -3.546875 "/></g></g><g transform="translate(168.618527, 232.024528)"><g><path d="M 2.640625 -28.21875 L 6.59375 -28.21875 L 7.109375 -25.203125 L 7.109375 -25.1875 C 7.910156 -26.476562 8.820312 -27.359375 9.84375 -27.828125 C 10.875 -28.304688 11.910156 -28.546875 12.953125 -28.546875 C 14.585938 -28.546875 15.851562 -27.960938 16.75 -26.796875 C 17.65625 -25.640625 18.109375 -23.914062 18.109375 -21.625 L 18.109375 0 L 12.9375 0 L 12.9375 -21 C 12.9375 -22.25 12.742188 -23.113281 12.359375 -23.59375 C 11.972656 -24.082031 11.410156 -24.328125 10.671875 -24.328125 C 10.148438 -24.328125 9.644531 -24.15625 9.15625 -23.8125 C 8.664062 -23.46875 8.222656 -22.992188 7.828125 -22.390625 L 7.828125 0 L 2.640625 0 Z M 2.640625 -28.21875 "/></g></g><g transform="translate(189.336257, 232.024528)"><g><path d="M 1.953125 -9.859375 L 1.953125 -18.8125 C 1.953125 -20.707031 2.109375 -22.265625 2.421875 -23.484375 C 2.734375 -24.703125 3.140625 -25.65625 3.640625 -26.34375 C 4.140625 -27.03125 4.671875 -27.523438 5.234375 -27.828125 C 5.804688 -28.140625 6.347656 -28.332031 6.859375 -28.40625 C 7.378906 -28.488281 7.804688 -28.53125 8.140625 -28.53125 C 9.160156 -28.53125 10.046875 -28.28125 10.796875 -27.78125 C 11.546875 -27.28125 12.113281 -26.742188 12.5 -26.171875 L 12.515625 -26.1875 L 12.359375 -29.75 L 12.359375 -37.28125 L 17.515625 -37.28125 L 17.515625 0 L 13.484375 0 L 13.03125 -2.625 C 12.582031 -1.875 11.960938 -1.191406 11.171875 -0.578125 C 10.378906 0.0234375 9.328125 0.328125 8.015625 0.328125 C 7.535156 0.328125 6.957031 0.238281 6.28125 0.0625 C 5.601562 -0.113281 4.929688 -0.523438 4.265625 -1.171875 C 3.609375 -1.828125 3.054688 -2.835938 2.609375 -4.203125 C 2.171875 -5.578125 1.953125 -7.460938 1.953125 -9.859375 Z M 12.359375 -5.921875 L 12.359375 -22.25 C 12.097656 -22.8125 11.75 -23.296875 11.3125 -23.703125 C 10.882812 -24.117188 10.363281 -24.328125 9.75 -24.328125 C 9.25 -24.328125 8.800781 -24.191406 8.40625 -23.921875 C 8.019531 -23.660156 7.710938 -23.160156 7.484375 -22.421875 C 7.265625 -21.691406 7.15625 -20.625 7.15625 -19.21875 L 7.15625 -9.03125 C 7.15625 -7.644531 7.265625 -6.578125 7.484375 -5.828125 C 7.710938 -5.085938 8.023438 -4.578125 8.421875 -4.296875 C 8.816406 -4.023438 9.269531 -3.890625 9.78125 -3.890625 C 10.457031 -3.890625 11 -4.097656 11.40625 -4.515625 C 11.820312 -4.929688 12.140625 -5.398438 12.359375 -5.921875 Z M 12.359375 -5.921875 "/></g></g><g transform="translate(209.521187, 232.024528)"><g><path d="M 7.625 -15.671875 C 8.144531 -15.929688 8.703125 -16.195312 9.296875 -16.46875 C 9.898438 -16.75 10.457031 -16.976562 10.96875 -17.15625 L 10.96875 -20.578125 C 10.96875 -21.285156 10.9375 -21.945312 10.875 -22.5625 C 10.8125 -23.175781 10.625 -23.675781 10.3125 -24.0625 C 10.007812 -24.457031 9.488281 -24.65625 8.75 -24.65625 C 8.007812 -24.65625 7.34375 -24.351562 6.75 -23.75 C 6.164062 -23.144531 5.875 -22.03125 5.875 -20.40625 L 5.875 -19.28125 L 1.921875 -19.28125 C 1.679688 -20.34375 1.5625 -21.273438 1.5625 -22.078125 C 1.5625 -24.171875 2.25 -25.769531 3.625 -26.875 C 5.007812 -27.976562 6.773438 -28.53125 8.921875 -28.53125 C 10.785156 -28.53125 12.242188 -28.265625 13.296875 -27.734375 C 14.347656 -27.210938 15.082031 -26.421875 15.5 -25.359375 C 15.925781 -24.296875 16.140625 -22.953125 16.140625 -21.328125 L 16.140625 0 L 12.15625 0 L 11.78125 -2.421875 C 11.238281 -1.628906 10.515625 -0.972656 9.609375 -0.453125 C 8.710938 0.0664062 7.664062 0.328125 6.46875 0.328125 C 5.238281 0.328125 4.226562 0.015625 3.4375 -0.609375 C 2.644531 -1.242188 2.054688 -2.078125 1.671875 -3.109375 C 1.285156 -4.140625 1.09375 -5.257812 1.09375 -6.46875 C 1.09375 -8.789062 1.644531 -10.640625 2.75 -12.015625 C 3.851562 -13.390625 5.476562 -14.609375 7.625 -15.671875 Z M 8.765625 -3.625 C 9.203125 -3.625 9.601562 -3.734375 9.96875 -3.953125 C 10.34375 -4.179688 10.675781 -4.460938 10.96875 -4.796875 L 10.96875 -13.6875 C 10.707031 -13.582031 10.425781 -13.453125 10.125 -13.296875 C 9.820312 -13.148438 9.472656 -12.953125 9.078125 -12.703125 C 8.347656 -12.253906 7.671875 -11.582031 7.046875 -10.6875 C 6.421875 -9.789062 6.109375 -8.65625 6.109375 -7.28125 C 6.109375 -6.195312 6.316406 -5.316406 6.734375 -4.640625 C 7.160156 -3.960938 7.835938 -3.625 8.765625 -3.625 Z M 8.765625 -3.625 "/></g></g></g></svg>